<?xml version="1.0" encoding="utf-8" standalone="no"?>
<!DOCTYPE svg PUBLIC "-//W3C//DTD SVG 1.1//EN"
  "http://www.w3.org/Graphics/SVG/1.1/DTD/svg11.dtd">
<svg xmlns:xlink="http://www.w3.org/1999/xlink" width="468pt" height="288pt" viewBox="0 0 468 288" xmlns="http://www.w3.org/2000/svg" version="1.1">
 <metadata>
  <rdf:RDF xmlns:dc="http://purl.org/dc/elements/1.1/" xmlns:cc="http://creativecommons.org/ns#" xmlns:rdf="http://www.w3.org/1999/02/22-rdf-syntax-ns#">
   <cc:Work>
    <dc:type rdf:resource="http://purl.org/dc/dcmitype/StillImage"/>
    <dc:date>2025-05-12T16:27:42.876485</dc:date>
    <dc:format>image/svg+xml</dc:format>
    <dc:creator>
     <cc:Agent>
      <dc:title>Matplotlib v3.10.0, https://matplotlib.org/</dc:title>
     </cc:Agent>
    </dc:creator>
   </cc:Work>
  </rdf:RDF>
 </metadata>
 <defs>
  <style type="text/css">*{stroke-linejoin: round; stroke-linecap: butt}</style>
 </defs>
 <g id="figure_1">
  <g id="patch_1">
   <path d="M 0 288 
L 468 288 
L 468 0 
L 0 0 
z
" style="fill: #ffffff"/>
  </g>
  <g id="axes_1">
   <g id="patch_2">
    <path d="M 49.61 246.04 
L 457.2 246.04 
L 457.2 10.8 
L 49.61 10.8 
z
" style="fill: #ffffff"/>
   </g>
   <g id="matplotlib.axis_1">
    <g id="xtick_1">
     <g id="line2d_1">
      <defs>
       <path id="m32ae402c67" d="M 0 0 
L 0 3.5 
" style="stroke: #000000; stroke-width: 0.8"/>
      </defs>
      <g>
       <use xlink:href="#m32ae402c67" x="105.190455" y="246.04" style="stroke: #000000; stroke-width: 0.8"/>
      </g>
     </g>
     <g id="text_1">
      <!-- -2% -->
      <g transform="translate(95.465455 260.180625) scale(0.1 -0.1)">
       <defs>
        <path id="HelveticaNeueforSAS-2d" d="M 2170 2035 
L 2170 1523 
L 320 1523 
L 320 2035 
L 2170 2035 
z
" transform="scale(0.015625)"/>
        <path id="HelveticaNeueforSAS-32" d="M 3162 3232 
Q 3162 2765 2899 2387 
Q 2643 2010 1786 1517 
Q 1280 1222 1059 988 
Q 838 755 787 480 
L 3117 480 
L 3117 0 
L 154 0 
Q 198 557 442 992 
Q 685 1408 1363 1818 
Q 2138 2278 2368 2573 
Q 2586 2848 2586 3232 
Q 2586 3590 2333 3824 
Q 2080 4058 1709 4058 
Q 1299 4058 1062 3754 
Q 826 3450 826 2976 
L 826 2931 
L 282 2931 
L 275 3046 
Q 275 3488 457 3827 
Q 640 4166 969 4352 
Q 1299 4538 1741 4538 
Q 2157 4538 2480 4378 
Q 2803 4218 2982 3923 
Q 3162 3629 3162 3232 
z
" transform="scale(0.015625)"/>
        <path id="HelveticaNeueforSAS-25" d="M 5190 4621 
L 1754 -141 
L 1203 -141 
L 4646 4621 
L 5190 4621 
z
M 2650 3258 
Q 2650 2662 2381 2316 
Q 2112 1971 1626 1971 
Q 1120 1971 854 2297 
Q 589 2624 589 3238 
Q 589 3859 854 4198 
Q 1120 4538 1626 4538 
Q 2650 4538 2650 3258 
z
M 1606 2323 
Q 1882 2323 2026 2556 
Q 2170 2790 2170 3258 
Q 2170 3738 2032 3962 
Q 1894 4186 1619 4186 
Q 1357 4186 1213 3946 
Q 1069 3706 1069 3245 
Q 1069 2323 1606 2323 
z
M 5811 1210 
Q 5811 627 5542 275 
Q 5274 -77 4787 -77 
Q 4288 -77 4019 249 
Q 3750 576 3750 1190 
Q 3750 1811 4019 2150 
Q 4288 2490 4787 2490 
Q 5811 2490 5811 1210 
z
M 4768 275 
Q 5331 275 5331 1210 
Q 5331 1683 5196 1910 
Q 5062 2138 4787 2138 
Q 4518 2138 4374 1901 
Q 4230 1664 4230 1203 
Q 4230 723 4368 499 
Q 4506 275 4768 275 
z
" transform="scale(0.015625)"/>
       </defs>
       <use xlink:href="#HelveticaNeueforSAS-2d"/>
       <use xlink:href="#HelveticaNeueforSAS-32" transform="translate(38.899994 0)"/>
       <use xlink:href="#HelveticaNeueforSAS-25" transform="translate(94.499985 0)"/>
      </g>
     </g>
    </g>
    <g id="xtick_2">
     <g id="line2d_2">
      <g>
       <use xlink:href="#m32ae402c67" x="253.405" y="246.04" style="stroke: #000000; stroke-width: 0.8"/>
      </g>
     </g>
     <g id="text_2">
      <!-- 0% -->
      <g transform="translate(245.625313 260.180625) scale(0.1 -0.1)">
       <defs>
        <path id="HelveticaNeueforSAS-30" d="M 2912 4038 
Q 3290 3546 3290 2227 
Q 3290 915 2912 422 
Q 2528 -77 1779 -77 
Q 1018 -77 646 429 
Q 269 934 269 2227 
Q 269 3526 646 4032 
Q 1030 4538 1779 4538 
Q 2528 4538 2912 4038 
z
M 1082 781 
Q 1325 403 1779 403 
Q 2285 403 2502 838 
Q 2714 1254 2714 2272 
Q 2714 2733 2666 3097 
Q 2618 3462 2445 3712 
Q 2208 4058 1773 4058 
Q 1338 4058 1088 3686 
Q 845 3315 845 2234 
Q 845 1178 1082 781 
z
" transform="scale(0.015625)"/>
       </defs>
       <use xlink:href="#HelveticaNeueforSAS-30"/>
       <use xlink:href="#HelveticaNeueforSAS-25" transform="translate(55.599991 0)"/>
      </g>
     </g>
    </g>
    <g id="xtick_3">
     <g id="line2d_3">
      <g>
       <use xlink:href="#m32ae402c67" x="290.458636" y="246.04" style="stroke: #000000; stroke-width: 0.8"/>
      </g>
     </g>
     <g id="text_3">
      <!-- 0.5%C -->
      <g transform="translate(274.899261 260.180625) scale(0.1 -0.1)">
       <defs>
        <path id="HelveticaNeueforSAS-2e" d="M 1242 710 
L 1242 0 
L 531 0 
L 531 710 
L 1242 710 
z
" transform="scale(0.015625)"/>
        <path id="HelveticaNeueforSAS-35" d="M 3008 3981 
L 1178 3981 
L 934 2675 
L 947 2662 
Q 1094 2822 1308 2905 
Q 1523 2989 1792 2989 
Q 2227 2989 2560 2800 
Q 2893 2611 3075 2262 
Q 3258 1914 3258 1440 
Q 3258 1005 3059 659 
Q 2861 314 2499 118 
Q 2138 -77 1670 -77 
Q 1274 -77 947 80 
Q 621 237 429 531 
Q 237 826 224 1216 
L 224 1222 
L 768 1222 
Q 794 864 1059 633 
Q 1325 403 1722 403 
Q 2144 403 2413 694 
Q 2682 986 2682 1478 
Q 2682 1779 2547 2012 
Q 2413 2246 2176 2377 
Q 1939 2509 1658 2509 
Q 1178 2509 813 2080 
L 346 2106 
L 768 4461 
L 3008 4461 
L 3008 3981 
z
" transform="scale(0.015625)"/>
        <path id="HelveticaNeueforSAS-43" d="M 4320 3194 
L 3712 3194 
Q 3610 3661 3274 3913 
Q 2938 4166 2432 4166 
Q 1958 4166 1606 3932 
Q 1254 3699 1068 3280 
Q 883 2861 883 2317 
Q 883 1434 1292 918 
Q 1702 403 2438 403 
Q 3002 403 3357 761 
Q 3712 1120 3757 1722 
L 4365 1722 
Q 4269 845 3753 368 
Q 3238 -109 2387 -109 
Q 1408 -109 838 538 
Q 275 1184 275 2272 
Q 275 3341 858 4006 
Q 1446 4678 2438 4678 
Q 3194 4678 3706 4281 
Q 4218 3885 4320 3194 
z
" transform="scale(0.015625)"/>
       </defs>
       <use xlink:href="#HelveticaNeueforSAS-30"/>
       <use xlink:href="#HelveticaNeueforSAS-2e" transform="translate(55.599991 0)"/>
       <use xlink:href="#HelveticaNeueforSAS-35" transform="translate(83.399979 0)"/>
       <use xlink:href="#HelveticaNeueforSAS-25" transform="translate(138.999969 0)"/>
       <use xlink:href="#HelveticaNeueforSAS-43" transform="translate(238.999954 0)"/>
      </g>
     </g>
    </g>
    <g id="xtick_4">
     <g id="line2d_4">
      <g>
       <use xlink:href="#m32ae402c67" x="364.565909" y="246.04" style="stroke: #000000; stroke-width: 0.8"/>
      </g>
     </g>
     <g id="text_4">
      <!-- 1.5%C -->
      <g transform="translate(349.006534 260.180625) scale(0.1 -0.1)">
       <defs>
        <path id="HelveticaNeueforSAS-31" d="M 2278 0 
L 1734 0 
L 1734 3251 
L 557 3251 
L 557 3686 
L 576 3686 
Q 1152 3686 1465 3894 
Q 1779 4102 1862 4538 
L 2278 4538 
L 2278 0 
z
" transform="scale(0.015625)"/>
       </defs>
       <use xlink:href="#HelveticaNeueforSAS-31"/>
       <use xlink:href="#HelveticaNeueforSAS-2e" transform="translate(55.599991 0)"/>
       <use xlink:href="#HelveticaNeueforSAS-35" transform="translate(83.399979 0)"/>
       <use xlink:href="#HelveticaNeueforSAS-25" transform="translate(138.999969 0)"/>
       <use xlink:href="#HelveticaNeueforSAS-43" transform="translate(238.999954 0)"/>
      </g>
     </g>
    </g>
    <g id="xtick_5">
     <g id="line2d_5">
      <g>
       <use xlink:href="#m32ae402c67" x="401.619545" y="246.04" style="stroke: #000000; stroke-width: 0.8"/>
      </g>
     </g>
     <g id="text_5">
      <!-- 2%C -->
      <g transform="translate(390.229702 260.180625) scale(0.1 -0.1)">
       <use xlink:href="#HelveticaNeueforSAS-32"/>
       <use xlink:href="#HelveticaNeueforSAS-25" transform="translate(55.599991 0)"/>
       <use xlink:href="#HelveticaNeueforSAS-43" transform="translate(155.599976 0)"/>
      </g>
     </g>
    </g>
    <g id="text_6">
     <!-- Valeur du progrès (TCAC) -->
     <g transform="translate(196.369844 273.480625) scale(0.1 -0.1)">
      <defs>
       <path id="HelveticaNeueforSAS-56" d="M 653 4570 
L 1958 608 
L 1971 608 
L 3290 4570 
L 3923 4570 
L 2298 0 
L 1606 0 
L -6 4570 
L 653 4570 
z
" transform="scale(0.015625)"/>
       <path id="HelveticaNeueforSAS-61" d="M 3002 2496 
L 3002 589 
Q 3002 403 3174 403 
Q 3258 403 3341 435 
L 3341 13 
Q 3181 -77 2950 -77 
Q 2726 -77 2608 51 
Q 2490 179 2490 435 
Q 2054 -77 1325 -77 
Q 813 -77 521 166 
Q 230 410 230 851 
Q 230 1299 518 1555 
Q 787 1818 1856 1952 
Q 2208 1997 2336 2086 
Q 2464 2176 2464 2362 
Q 2464 2637 2285 2771 
Q 2106 2906 1728 2906 
Q 1325 2906 1123 2752 
Q 922 2598 902 2278 
L 358 2278 
Q 384 2829 745 3107 
Q 1107 3386 1766 3386 
Q 2432 3386 2717 3152 
Q 3002 2918 3002 2496 
z
M 1446 403 
Q 1747 403 1977 508 
Q 2208 614 2333 784 
Q 2458 954 2458 1139 
L 2458 1709 
Q 2310 1606 2074 1574 
L 1517 1491 
Q 1152 1440 979 1293 
Q 806 1146 806 890 
Q 806 659 976 531 
Q 1146 403 1446 403 
z
" transform="scale(0.015625)"/>
       <path id="HelveticaNeueforSAS-6c" d="M 986 4570 
L 986 0 
L 442 0 
L 442 4570 
L 986 4570 
z
" transform="scale(0.015625)"/>
       <path id="HelveticaNeueforSAS-65" d="M 2893 2874 
Q 3283 2368 3283 1555 
L 3283 1491 
L 806 1491 
L 806 1453 
Q 806 973 1084 688 
Q 1363 403 1837 403 
Q 2195 403 2409 569 
Q 2624 736 2694 1050 
L 3232 1050 
Q 3123 506 2755 214 
Q 2387 -77 1818 -77 
Q 1299 -77 941 154 
Q 595 384 412 800 
Q 230 1216 230 1677 
Q 230 2413 666 2893 
Q 1107 3386 1786 3386 
Q 2496 3386 2893 2874 
z
M 1747 2906 
Q 1363 2906 1100 2650 
Q 838 2394 806 1971 
L 2707 1971 
Q 2682 2374 2413 2640 
Q 2144 2906 1747 2906 
z
" transform="scale(0.015625)"/>
       <path id="HelveticaNeueforSAS-75" d="M 954 1056 
Q 954 762 1136 582 
Q 1318 403 1626 403 
Q 2093 403 2349 681 
Q 2605 960 2605 1421 
L 2605 3309 
L 3149 3309 
L 3149 0 
L 2637 0 
L 2637 525 
L 2624 525 
Q 2285 -77 1549 -77 
Q 410 -77 410 1101 
L 410 3309 
L 954 3309 
L 954 1056 
z
" transform="scale(0.015625)"/>
       <path id="HelveticaNeueforSAS-72" d="M 2131 3386 
L 2131 2810 
Q 1523 2810 1228 2483 
Q 934 2157 934 1478 
L 934 0 
L 390 0 
L 390 3309 
L 902 3309 
L 902 2611 
L 915 2611 
Q 1107 3008 1385 3197 
Q 1664 3386 2054 3386 
L 2131 3386 
z
" transform="scale(0.015625)"/>
       <path id="HelveticaNeueforSAS-20" transform="scale(0.015625)"/>
       <path id="HelveticaNeueforSAS-64" d="M 3366 0 
L 2822 0 
L 2822 448 
L 2810 448 
Q 2682 198 2403 60 
Q 2125 -77 1754 -77 
Q 1299 -77 953 144 
Q 608 365 419 758 
Q 230 1152 230 1664 
Q 230 2170 409 2560 
Q 589 2950 928 3168 
Q 1267 3386 1734 3386 
Q 2067 3386 2364 3248 
Q 2662 3110 2810 2867 
L 2822 2867 
L 2822 4570 
L 3366 4570 
L 3366 0 
z
M 1830 403 
Q 2310 403 2576 745 
Q 2842 1088 2842 1651 
Q 2842 2221 2563 2563 
Q 2285 2906 1792 2906 
Q 1325 2906 1065 2563 
Q 806 2221 806 1626 
Q 806 1088 1084 745 
Q 1363 403 1830 403 
z
" transform="scale(0.015625)"/>
       <path id="HelveticaNeueforSAS-70" d="M 3565 1645 
Q 3565 1139 3382 748 
Q 3200 358 2857 140 
Q 2515 -77 2054 -77 
Q 1728 -77 1440 54 
Q 1152 186 986 442 
L 973 442 
L 973 -1267 
L 429 -1267 
L 429 3309 
L 973 3309 
L 973 2861 
L 986 2861 
Q 1114 3117 1389 3251 
Q 1664 3386 2042 3386 
Q 2515 3386 2857 3165 
Q 3200 2944 3382 2550 
Q 3565 2157 3565 1645 
z
M 1997 403 
Q 2464 403 2726 739 
Q 2989 1075 2989 1683 
Q 2989 2221 2710 2563 
Q 2432 2906 1958 2906 
Q 1478 2906 1216 2560 
Q 954 2214 954 1658 
Q 954 1082 1229 742 
Q 1504 403 1997 403 
z
" transform="scale(0.015625)"/>
       <path id="HelveticaNeueforSAS-6f" d="M 3443 1651 
Q 3443 1146 3244 752 
Q 3046 358 2681 140 
Q 2317 -77 1837 -77 
Q 1357 -77 995 134 
Q 634 346 432 739 
Q 230 1133 230 1651 
Q 230 2176 425 2566 
Q 621 2957 982 3171 
Q 1344 3386 1837 3386 
Q 2336 3386 2697 3165 
Q 3059 2944 3251 2550 
Q 3443 2157 3443 1651 
z
M 1837 403 
Q 2131 403 2368 560 
Q 2605 717 2736 998 
Q 2867 1280 2867 1651 
Q 2867 2022 2732 2307 
Q 2598 2592 2364 2749 
Q 2131 2906 1830 2906 
Q 1542 2906 1308 2752 
Q 1075 2598 940 2313 
Q 806 2029 806 1651 
Q 806 1280 937 998 
Q 1069 717 1302 560 
Q 1536 403 1837 403 
z
" transform="scale(0.015625)"/>
       <path id="HelveticaNeueforSAS-67" d="M 2746 2835 
L 2752 2835 
L 2752 3309 
L 3264 3309 
L 3264 250 
Q 3264 -1344 1734 -1344 
Q 1152 -1344 768 -1091 
Q 384 -838 358 -371 
L 902 -371 
Q 915 -621 1168 -765 
Q 1421 -909 1760 -909 
Q 2240 -909 2496 -589 
Q 2752 -269 2752 358 
L 2752 563 
L 2739 563 
Q 2611 288 2332 125 
Q 2054 -38 1709 -38 
Q 1267 -38 931 173 
Q 595 384 412 765 
Q 230 1146 230 1638 
Q 230 2144 409 2541 
Q 589 2938 934 3162 
Q 1280 3386 1754 3386 
Q 2093 3386 2349 3238 
Q 2605 3091 2746 2835 
z
M 1741 442 
Q 2189 442 2457 794 
Q 2726 1146 2726 1722 
Q 2726 2259 2476 2582 
Q 2227 2906 1779 2906 
Q 1325 2906 1065 2579 
Q 806 2253 806 1702 
Q 806 1114 1052 778 
Q 1299 442 1741 442 
z
" transform="scale(0.015625)"/>
       <path id="HelveticaNeueforSAS-e8" d="M 2893 2874 
Q 3283 2368 3283 1555 
L 3283 1491 
L 806 1491 
L 806 1453 
Q 806 973 1084 688 
Q 1363 403 1837 403 
Q 2195 403 2409 569 
Q 2624 736 2694 1050 
L 3232 1050 
Q 3123 506 2755 214 
Q 2387 -77 1818 -77 
Q 1299 -77 941 154 
Q 595 384 412 800 
Q 230 1216 230 1677 
Q 230 2413 666 2893 
Q 1107 3386 1786 3386 
Q 2496 3386 2893 2874 
z
M 1747 2906 
Q 1363 2906 1100 2650 
Q 838 2394 806 1971 
L 2707 1971 
Q 2682 2374 2413 2640 
Q 2144 2906 1747 2906 
z
M 1534 4685 
L 2085 3770 
L 1675 3770 
L 837 4685 
L 1534 4685 
z
" transform="scale(0.015625)"/>
       <path id="HelveticaNeueforSAS-73" d="M 2861 2349 
L 2317 2349 
L 2317 2355 
Q 2291 2618 2086 2762 
Q 1882 2906 1549 2906 
Q 1222 2906 1033 2794 
Q 845 2682 845 2483 
Q 845 2304 1008 2189 
Q 1171 2074 1517 1997 
L 2029 1882 
Q 2522 1773 2765 1552 
Q 3008 1331 3008 966 
Q 3008 480 2630 201 
Q 2253 -77 1600 -77 
Q 960 -77 592 208 
Q 224 493 198 1043 
L 742 1043 
Q 749 736 982 569 
Q 1216 403 1632 403 
Q 2029 403 2230 528 
Q 2432 653 2432 896 
Q 2432 1120 2227 1248 
Q 2035 1370 1402 1504 
Q 774 1638 521 1852 
Q 269 2067 269 2445 
Q 269 2874 614 3130 
Q 960 3386 1510 3386 
Q 2170 3386 2499 3130 
Q 2829 2874 2861 2349 
z
" transform="scale(0.015625)"/>
       <path id="HelveticaNeueforSAS-28" d="M 877 1728 
Q 877 870 1078 153 
Q 1280 -563 1722 -1267 
L 1306 -1267 
Q 762 -416 531 281 
Q 301 979 301 1728 
Q 301 2483 563 3257 
Q 826 4032 1306 4678 
L 1722 4678 
Q 1286 3994 1081 3280 
Q 877 2566 877 1728 
z
" transform="scale(0.015625)"/>
       <path id="HelveticaNeueforSAS-54" d="M 3667 4570 
L 3667 4058 
L 2144 4058 
L 2144 0 
L 1536 0 
L 1536 4058 
L 13 4058 
L 13 4570 
L 3667 4570 
z
" transform="scale(0.015625)"/>
       <path id="HelveticaNeueforSAS-41" d="M 2413 4570 
L 4198 0 
L 3526 0 
L 3027 1376 
L 1094 1376 
L 582 0 
L -45 0 
L 1741 4570 
L 2413 4570 
z
M 2061 4019 
L 1286 1888 
L 2835 1888 
L 2074 4019 
L 2061 4019 
z
" transform="scale(0.015625)"/>
       <path id="HelveticaNeueforSAS-29" d="M 1357 1683 
Q 1357 915 1094 153 
Q 832 -608 352 -1267 
L -64 -1267 
Q 371 -582 576 131 
Q 781 845 781 1683 
Q 781 2528 576 3257 
Q 371 3987 -64 4678 
L 352 4678 
Q 870 3885 1113 3168 
Q 1357 2451 1357 1683 
z
" transform="scale(0.015625)"/>
      </defs>
      <use xlink:href="#HelveticaNeueforSAS-56"/>
      <use xlink:href="#HelveticaNeueforSAS-61" transform="translate(61.099991 0)"/>
      <use xlink:href="#HelveticaNeueforSAS-6c" transform="translate(114.799988 0)"/>
      <use xlink:href="#HelveticaNeueforSAS-65" transform="translate(136.999985 0)"/>
      <use xlink:href="#HelveticaNeueforSAS-75" transform="translate(190.699982 0)"/>
      <use xlink:href="#HelveticaNeueforSAS-72" transform="translate(246.299973 0)"/>
      <use xlink:href="#HelveticaNeueforSAS-20" transform="translate(279.59996 0)"/>
      <use xlink:href="#HelveticaNeueforSAS-64" transform="translate(307.399948 0)"/>
      <use xlink:href="#HelveticaNeueforSAS-75" transform="translate(366.699936 0)"/>
      <use xlink:href="#HelveticaNeueforSAS-20" transform="translate(422.299927 0)"/>
      <use xlink:href="#HelveticaNeueforSAS-70" transform="translate(450.099915 0)"/>
      <use xlink:href="#HelveticaNeueforSAS-72" transform="translate(509.399902 0)"/>
      <use xlink:href="#HelveticaNeueforSAS-6f" transform="translate(542.69989 0)"/>
      <use xlink:href="#HelveticaNeueforSAS-67" transform="translate(600.099884 0)"/>
      <use xlink:href="#HelveticaNeueforSAS-72" transform="translate(657.499878 0)"/>
      <use xlink:href="#HelveticaNeueforSAS-e8" transform="translate(690.799866 0)"/>
      <use xlink:href="#HelveticaNeueforSAS-73" transform="translate(744.499863 0)"/>
      <use xlink:href="#HelveticaNeueforSAS-20" transform="translate(794.499847 0)"/>
      <use xlink:href="#HelveticaNeueforSAS-28" transform="translate(822.299835 0)"/>
      <use xlink:href="#HelveticaNeueforSAS-54" transform="translate(848.199829 0)"/>
      <use xlink:href="#HelveticaNeueforSAS-43" transform="translate(905.599823 0)"/>
      <use xlink:href="#HelveticaNeueforSAS-41" transform="translate(977.799805 0)"/>
      <use xlink:href="#HelveticaNeueforSAS-43" transform="translate(1042.599792 0)"/>
      <use xlink:href="#HelveticaNeueforSAS-29" transform="translate(1114.799774 0)"/>
     </g>
    </g>
   </g>
   <g id="matplotlib.axis_2">
    <g id="ytick_1">
     <g id="line2d_6">
      <path d="M 49.61 235.347273 
L 457.2 235.347273 
" clip-path="url(#pde03469d51)" style="fill: none; stroke-dasharray: 0.8,1.32; stroke-dashoffset: 0; stroke: #b0b0b0; stroke-width: 0.8"/>
     </g>
     <g id="line2d_7">
      <defs>
       <path id="m45d46ea0f0" d="M 0 0 
L -3.5 0 
" style="stroke: #000000; stroke-width: 0.8"/>
      </defs>
      <g>
       <use xlink:href="#m45d46ea0f0" x="49.61" y="235.347273" style="stroke: #000000; stroke-width: 0.8"/>
      </g>
     </g>
     <g id="text_7">
      <!-- -5 -->
      <g transform="translate(33.16 238.917585) scale(0.1 -0.1)">
       <use xlink:href="#HelveticaNeueforSAS-2d"/>
       <use xlink:href="#HelveticaNeueforSAS-35" transform="translate(38.899994 0)"/>
      </g>
     </g>
    </g>
    <g id="ytick_2">
     <g id="line2d_8">
      <path d="M 49.61 181.883636 
L 457.2 181.883636 
" clip-path="url(#pde03469d51)" style="fill: none; stroke-dasharray: 0.8,1.32; stroke-dashoffset: 0; stroke: #b0b0b0; stroke-width: 0.8"/>
     </g>
     <g id="line2d_9">
      <g>
       <use xlink:href="#m45d46ea0f0" x="49.61" y="181.883636" style="stroke: #000000; stroke-width: 0.8"/>
      </g>
     </g>
     <g id="text_8">
      <!-- -2.5 -->
      <g transform="translate(24.820938 185.453949) scale(0.1 -0.1)">
       <use xlink:href="#HelveticaNeueforSAS-2d"/>
       <use xlink:href="#HelveticaNeueforSAS-32" transform="translate(38.899994 0)"/>
       <use xlink:href="#HelveticaNeueforSAS-2e" transform="translate(94.499985 0)"/>
       <use xlink:href="#HelveticaNeueforSAS-35" transform="translate(122.299973 0)"/>
      </g>
     </g>
    </g>
    <g id="ytick_3">
     <g id="line2d_10">
      <path d="M 49.61 128.42 
L 457.2 128.42 
" clip-path="url(#pde03469d51)" style="fill: none; stroke-dasharray: 0.8,1.32; stroke-dashoffset: 0; stroke: #b0b0b0; stroke-width: 0.8"/>
     </g>
     <g id="line2d_11">
      <g>
       <use xlink:href="#m45d46ea0f0" x="49.61" y="128.42" style="stroke: #000000; stroke-width: 0.8"/>
      </g>
     </g>
     <g id="text_9">
      <!-- 0 -->
      <g transform="translate(37.050625 131.990313) scale(0.1 -0.1)">
       <use xlink:href="#HelveticaNeueforSAS-30"/>
      </g>
     </g>
    </g>
    <g id="ytick_4">
     <g id="line2d_12">
      <path d="M 49.61 74.956364 
L 457.2 74.956364 
" clip-path="url(#pde03469d51)" style="fill: none; stroke-dasharray: 0.8,1.32; stroke-dashoffset: 0; stroke: #b0b0b0; stroke-width: 0.8"/>
     </g>
     <g id="line2d_13">
      <g>
       <use xlink:href="#m45d46ea0f0" x="49.61" y="74.956364" style="stroke: #000000; stroke-width: 0.8"/>
      </g>
     </g>
     <g id="text_10">
      <!-- 2.5 -->
      <g transform="translate(28.711563 78.526676) scale(0.1 -0.1)">
       <use xlink:href="#HelveticaNeueforSAS-32"/>
       <use xlink:href="#HelveticaNeueforSAS-2e" transform="translate(55.599991 0)"/>
       <use xlink:href="#HelveticaNeueforSAS-35" transform="translate(83.399979 0)"/>
      </g>
     </g>
    </g>
    <g id="ytick_5">
     <g id="line2d_14">
      <path d="M 49.61 21.492727 
L 457.2 21.492727 
" clip-path="url(#pde03469d51)" style="fill: none; stroke-dasharray: 0.8,1.32; stroke-dashoffset: 0; stroke: #b0b0b0; stroke-width: 0.8"/>
     </g>
     <g id="line2d_15">
      <g>
       <use xlink:href="#m45d46ea0f0" x="49.61" y="21.492727" style="stroke: #000000; stroke-width: 0.8"/>
      </g>
     </g>
     <g id="text_11">
      <!-- 5 -->
      <g transform="translate(37.050625 25.06304) scale(0.1 -0.1)">
       <use xlink:href="#HelveticaNeueforSAS-35"/>
      </g>
     </g>
    </g>
    <g id="text_12">
     <!-- Score -->
     <g transform="translate(18.84125 141.565313) rotate(-90) scale(0.1 -0.1)">
      <defs>
       <path id="HelveticaNeueforSAS-53" d="M 3718 3232 
L 3142 3232 
Q 3040 4166 2010 4166 
Q 1517 4166 1251 3961 
Q 986 3757 986 3386 
Q 986 3136 1216 2944 
Q 1440 2778 2451 2573 
Q 3200 2419 3555 2105 
Q 3910 1792 3910 1254 
Q 3910 614 3386 256 
Q 2867 -109 2125 -109 
Q 1574 -109 1148 76 
Q 723 262 480 627 
Q 237 992 237 1504 
L 813 1504 
Q 819 986 1184 694 
Q 1549 403 2144 403 
Q 2701 403 3001 617 
Q 3302 832 3302 1235 
Q 3302 1459 3184 1612 
Q 3066 1766 2787 1884 
Q 2509 2003 2016 2093 
Q 1037 2285 710 2566 
Q 378 2861 378 3341 
Q 378 3750 592 4054 
Q 806 4358 1184 4518 
Q 1562 4678 2035 4678 
Q 2803 4678 3257 4297 
Q 3712 3917 3718 3232 
z
" transform="scale(0.015625)"/>
       <path id="HelveticaNeueforSAS-63" d="M 3219 2246 
L 2656 2246 
Q 2592 2566 2377 2736 
Q 2163 2906 1837 2906 
Q 1338 2906 1072 2570 
Q 806 2234 806 1613 
Q 806 1062 1065 732 
Q 1325 403 1773 403 
Q 2163 403 2396 614 
Q 2630 826 2682 1210 
L 3238 1210 
Q 3149 589 2771 256 
Q 2394 -77 1779 -77 
Q 1056 -77 643 377 
Q 230 832 230 1613 
Q 230 2150 419 2550 
Q 608 2950 960 3168 
Q 1312 3386 1792 3386 
Q 2400 3386 2777 3094 
Q 3155 2803 3219 2246 
z
" transform="scale(0.015625)"/>
      </defs>
      <use xlink:href="#HelveticaNeueforSAS-53"/>
      <use xlink:href="#HelveticaNeueforSAS-63" transform="translate(64.799988 0)"/>
      <use xlink:href="#HelveticaNeueforSAS-6f" transform="translate(118.499985 0)"/>
      <use xlink:href="#HelveticaNeueforSAS-72" transform="translate(175.899979 0)"/>
      <use xlink:href="#HelveticaNeueforSAS-65" transform="translate(209.199966 0)"/>
     </g>
    </g>
   </g>
   <g id="line2d_16">
    <path d="M 68.136818 235.347273 
L 70.008214 235.347273 
L 71.87961 235.347273 
L 73.751006 235.347273 
L 75.622401 235.347273 
L 77.493797 235.347273 
L 79.365193 235.347273 
L 81.236589 235.347273 
L 83.107984 235.347273 
L 84.97938 235.347273 
L 86.850776 235.347273 
L 88.722172 235.347273 
L 90.593567 235.347273 
L 92.464963 235.347273 
L 94.336359 235.347273 
L 96.207755 235.347273 
L 98.079151 235.347273 
L 99.950546 235.347273 
L 101.821942 235.347273 
L 103.693338 235.347273 
L 105.564734 235.212264 
L 107.436129 234.537218 
L 109.307525 233.862172 
L 111.178921 233.187126 
L 113.050317 232.51208 
L 114.921713 231.837034 
L 116.793108 231.161988 
L 118.664504 230.486942 
L 120.5359 229.811896 
L 122.407296 229.13685 
L 124.278691 228.461804 
L 126.150087 227.786758 
L 128.021483 227.111713 
L 129.892879 226.436667 
L 131.764275 225.761621 
L 133.63567 225.086575 
L 135.507066 224.411529 
L 137.378462 223.736483 
L 139.249858 223.061437 
L 141.121253 222.386391 
L 142.992649 221.711345 
L 144.864045 221.036299 
L 146.735441 220.361253 
L 148.606837 219.686208 
L 150.478232 219.011162 
L 152.349628 218.336116 
L 154.221024 217.66107 
L 156.09242 216.986024 
L 157.963815 216.310978 
L 159.835211 215.635932 
L 161.706607 214.960886 
L 163.578003 214.28584 
L 165.449399 213.610794 
L 167.320794 212.935748 
L 169.19219 212.260702 
L 171.063586 211.585657 
L 172.934982 210.910611 
L 174.806377 210.235565 
L 176.677773 209.560519 
L 178.549169 208.885473 
L 180.420565 208.210427 
L 182.291961 207.535381 
L 184.163356 206.860335 
L 186.034752 206.185289 
L 187.906148 205.510243 
L 189.777544 204.835197 
L 191.648939 204.160152 
L 193.520335 203.485106 
L 195.391731 202.81006 
L 197.263127 202.135014 
L 199.134522 201.459968 
L 201.005918 200.784922 
L 202.877314 200.109876 
L 204.74871 199.43483 
L 206.620106 198.759784 
L 208.491501 198.084738 
L 210.362897 197.409692 
L 212.234293 196.734646 
L 214.105689 196.059601 
L 215.977084 195.384555 
L 217.84848 194.709509 
L 219.719876 194.034463 
L 221.591272 193.359417 
L 223.462668 192.684371 
L 225.334063 192.009325 
L 227.205459 191.334279 
L 229.076855 190.659233 
L 230.948251 189.984187 
L 232.819646 189.309141 
L 234.691042 188.634096 
L 236.562438 187.95905 
L 238.433834 187.284004 
L 240.30523 186.608958 
L 242.176625 185.933912 
L 244.048021 185.258866 
L 245.919417 184.58382 
L 247.790813 183.908774 
L 249.662208 183.233728 
L 251.533604 182.558682 
L 253.405 181.883636 
" clip-path="url(#pde03469d51)" style="fill: none; stroke: #d42c2c; stroke-width: 1.5; stroke-linecap: round"/>
   </g>
   <g id="line2d_17">
    <path d="M 253.405 181.883636 
L 253.779279 181.3436 
L 254.153558 180.803563 
L 254.527837 180.263526 
L 254.902117 179.723489 
L 255.276396 179.183453 
L 255.650675 178.643416 
L 256.024954 178.103379 
L 256.399233 177.563343 
L 256.773512 177.023306 
L 257.147792 176.483269 
L 257.522071 175.943232 
L 257.89635 175.403196 
L 258.270629 174.863159 
L 258.644908 174.323122 
L 259.019187 173.783085 
L 259.393466 173.243049 
L 259.767746 172.703012 
L 260.142025 172.162975 
L 260.516304 171.622938 
L 260.890583 171.082902 
L 261.264862 170.542865 
L 261.639141 170.002828 
L 262.013421 169.462792 
L 262.3877 168.922755 
L 262.761979 168.382718 
L 263.136258 167.842681 
L 263.510537 167.302645 
L 263.884816 166.762608 
L 264.259096 166.222571 
L 264.633375 165.682534 
L 265.007654 165.142498 
L 265.381933 164.602461 
L 265.756212 164.062424 
L 266.130491 163.522388 
L 266.50477 162.982351 
L 266.87905 162.442314 
L 267.253329 161.902277 
L 267.627608 161.362241 
L 268.001887 160.822204 
L 268.376166 160.282167 
L 268.750445 159.74213 
L 269.124725 159.202094 
L 269.499004 158.662057 
L 269.873283 158.12202 
L 270.247562 157.581983 
L 270.621841 157.041947 
L 270.99612 156.50191 
L 271.370399 155.961873 
L 271.744679 155.421837 
L 272.118958 154.8818 
L 272.493237 154.341763 
L 272.867516 153.801726 
L 273.241795 153.26169 
L 273.616074 152.721653 
L 273.990354 152.181616 
L 274.364633 151.641579 
L 274.738912 151.101543 
L 275.113191 150.561506 
L 275.48747 150.021469 
L 275.861749 149.481433 
L 276.236028 148.941396 
L 276.610308 148.401359 
L 276.984587 147.861322 
L 277.358866 147.321286 
L 277.733145 146.781249 
L 278.107424 146.241212 
L 278.481703 145.701175 
L 278.855983 145.161139 
L 279.230262 144.621102 
L 279.604541 144.081065 
L 279.97882 143.541028 
L 280.353099 143.000992 
L 280.727378 142.460955 
L 281.101657 141.920918 
L 281.475937 141.380882 
L 281.850216 140.840845 
L 282.224495 140.300808 
L 282.598774 139.760771 
L 282.973053 139.220735 
L 283.347332 138.680698 
L 283.721612 138.140661 
L 284.095891 137.600624 
L 284.47017 137.060588 
L 284.844449 136.520551 
L 285.218728 135.980514 
L 285.593007 135.440478 
L 285.967287 134.900441 
L 286.341566 134.360404 
L 286.715845 133.820367 
L 287.090124 133.280331 
L 287.464403 132.740294 
L 287.838682 132.200257 
L 288.212961 131.66022 
L 288.587241 131.120184 
L 288.96152 130.580147 
L 289.335799 130.04011 
L 289.710078 129.500073 
L 290.084357 128.960037 
L 290.458636 128.42 
" clip-path="url(#pde03469d51)" style="fill: none; stroke: #f47c04; stroke-width: 1.5; stroke-linecap: round"/>
   </g>
   <g id="line2d_18">
    <path d="M 290.458636 128.42 
L 291.207195 127.879963 
L 291.955753 127.339927 
L 292.704311 126.79989 
L 293.45287 126.259853 
L 294.201428 125.719816 
L 294.949986 125.17978 
L 295.698545 124.639743 
L 296.447103 124.099706 
L 297.195661 123.559669 
L 297.944219 123.019633 
L 298.692778 122.479596 
L 299.441336 121.939559 
L 300.189894 121.399522 
L 300.938453 120.859486 
L 301.687011 120.319449 
L 302.435569 119.779412 
L 303.184128 119.239376 
L 303.932686 118.699339 
L 304.681244 118.159302 
L 305.429803 117.619265 
L 306.178361 117.079229 
L 306.926919 116.539192 
L 307.675478 115.999155 
L 308.424036 115.459118 
L 309.172594 114.919082 
L 309.921152 114.379045 
L 310.669711 113.839008 
L 311.418269 113.298972 
L 312.166827 112.758935 
L 312.915386 112.218898 
L 313.663944 111.678861 
L 314.412502 111.138825 
L 315.161061 110.598788 
L 315.909619 110.058751 
L 316.658177 109.518714 
L 317.406736 108.978678 
L 318.155294 108.438641 
L 318.903852 107.898604 
L 319.65241 107.358567 
L 320.400969 106.818531 
L 321.149527 106.278494 
L 321.898085 105.738457 
L 322.646644 105.198421 
L 323.395202 104.658384 
L 324.14376 104.118347 
L 324.892319 103.57831 
L 325.640877 103.038274 
L 326.389435 102.498237 
L 327.137994 101.9582 
L 327.886552 101.418163 
L 328.63511 100.878127 
L 329.383669 100.33809 
L 330.132227 99.798053 
L 330.880785 99.258017 
L 331.629343 98.71798 
L 332.377902 98.177943 
L 333.12646 97.637906 
L 333.875018 97.09787 
L 334.623577 96.557833 
L 335.372135 96.017796 
L 336.120693 95.477759 
L 336.869252 94.937723 
L 337.61781 94.397686 
L 338.366368 93.857649 
L 339.114927 93.317612 
L 339.863485 92.777576 
L 340.612043 92.237539 
L 341.360601 91.697502 
L 342.10916 91.157466 
L 342.857718 90.617429 
L 343.606276 90.077392 
L 344.354835 89.537355 
L 345.103393 88.997319 
L 345.851951 88.457282 
L 346.60051 87.917245 
L 347.349068 87.377208 
L 348.097626 86.837172 
L 348.846185 86.297135 
L 349.594743 85.757098 
L 350.343301 85.217062 
L 351.09186 84.677025 
L 351.840418 84.136988 
L 352.588976 83.596951 
L 353.337534 83.056915 
L 354.086093 82.516878 
L 354.834651 81.976841 
L 355.583209 81.436804 
L 356.331768 80.896768 
L 357.080326 80.356731 
L 357.828884 79.816694 
L 358.577443 79.276657 
L 359.326001 78.736621 
L 360.074559 78.196584 
L 360.823118 77.656547 
L 361.571676 77.116511 
L 362.320234 76.576474 
L 363.068792 76.036437 
L 363.817351 75.4964 
L 364.565909 74.956364 
" clip-path="url(#pde03469d51)" style="fill: none; stroke: #fcbc4c; stroke-width: 1.5; stroke-linecap: round"/>
   </g>
   <g id="line2d_19">
    <path d="M 364.565909 74.956364 
L 365.314467 73.87629 
L 366.063026 72.796217 
L 366.811584 71.716143 
L 367.560142 70.63607 
L 368.308701 69.555996 
L 369.057259 68.475923 
L 369.805817 67.395849 
L 370.554376 66.315776 
L 371.302934 65.235702 
L 372.051492 64.155629 
L 372.800051 63.075556 
L 373.548609 61.995482 
L 374.297167 60.915409 
L 375.045725 59.835335 
L 375.794284 58.755262 
L 376.542842 57.675188 
L 377.2914 56.595115 
L 378.039959 55.515041 
L 378.788517 54.434968 
L 379.537075 53.354894 
L 380.285634 52.274821 
L 381.034192 51.194747 
L 381.78275 50.114674 
L 382.531309 49.034601 
L 383.279867 47.954527 
L 384.028425 46.874454 
L 384.776983 45.79438 
L 385.525542 44.714307 
L 386.2741 43.634233 
L 387.022658 42.55416 
L 387.771217 41.474086 
L 388.519775 40.394013 
L 389.268333 39.313939 
L 390.016892 38.233866 
L 390.76545 37.153792 
L 391.514008 36.073719 
L 392.262567 34.993646 
L 393.011125 33.913572 
L 393.759683 32.833499 
L 394.508242 31.753425 
L 395.2568 30.673352 
L 396.005358 29.593278 
L 396.753916 28.513205 
L 397.502475 27.433131 
L 398.251033 26.353058 
L 398.999591 25.272984 
L 399.74815 24.192911 
L 400.496708 23.112837 
L 401.245266 22.032764 
L 401.993825 21.492727 
L 402.742383 21.492727 
L 403.490941 21.492727 
L 404.2395 21.492727 
L 404.988058 21.492727 
L 405.736616 21.492727 
L 406.485174 21.492727 
L 407.233733 21.492727 
L 407.982291 21.492727 
L 408.730849 21.492727 
L 409.479408 21.492727 
L 410.227966 21.492727 
L 410.976524 21.492727 
L 411.725083 21.492727 
L 412.473641 21.492727 
L 413.222199 21.492727 
L 413.970758 21.492727 
L 414.719316 21.492727 
L 415.467874 21.492727 
L 416.216433 21.492727 
L 416.964991 21.492727 
L 417.713549 21.492727 
L 418.462107 21.492727 
L 419.210666 21.492727 
L 419.959224 21.492727 
L 420.707782 21.492727 
L 421.456341 21.492727 
L 422.204899 21.492727 
L 422.953457 21.492727 
L 423.702016 21.492727 
L 424.450574 21.492727 
L 425.199132 21.492727 
L 425.947691 21.492727 
L 426.696249 21.492727 
L 427.444807 21.492727 
L 428.193365 21.492727 
L 428.941924 21.492727 
L 429.690482 21.492727 
L 430.43904 21.492727 
L 431.187599 21.492727 
L 431.936157 21.492727 
L 432.684715 21.492727 
L 433.433274 21.492727 
L 434.181832 21.492727 
L 434.93039 21.492727 
L 435.678949 21.492727 
L 436.427507 21.492727 
L 437.176065 21.492727 
L 437.924624 21.492727 
L 438.673182 21.492727 
" clip-path="url(#pde03469d51)" style="fill: none; stroke: #93c46c; stroke-width: 1.5; stroke-linecap: round"/>
   </g>
   <g id="patch_3">
    <path d="M 49.61 246.04 
L 457.2 246.04 
" style="fill: none; stroke: #000000; stroke-width: 0.8; stroke-linejoin: miter; stroke-linecap: square"/>
   </g>
   <g id="patch_4">
    <path d="M 401.619545 21.242727 
Q 421.350878 21.242727 441.082211 21.242727 
L 441.082211 18.492727 
Q 443.58306 19.992727 446.083909 21.492727 
Q 443.58306 22.992727 441.082211 24.492727 
L 441.082211 21.742727 
Q 421.350878 21.742727 401.619545 21.742727 
L 401.619545 21.242727 
z
" style="fill: #93c46c; stroke: #93c46c; stroke-linecap: round"/>
   </g>
   <g id="patch_5">
    <path d="M 105.190455 235.597273 
Q 85.459122 235.597273 65.727789 235.597273 
L 65.727789 238.347273 
Q 63.22694 236.847273 60.726091 235.347273 
Q 63.22694 233.847273 65.727789 232.347273 
L 65.727789 235.097273 
Q 85.459122 235.097273 105.190455 235.097273 
L 105.190455 235.597273 
z
" style="fill: #d42c2c; stroke: #d42c2c; stroke-linecap: round"/>
   </g>
  </g>
 </g>
 <defs>
  <clipPath id="pde03469d51">
   <rect x="49.61" y="10.8" width="407.59" height="235.24"/>
  </clipPath>
 </defs>
</svg>
