<?xml version="1.0" encoding="utf-8" standalone="no"?>
<!DOCTYPE svg PUBLIC "-//W3C//DTD SVG 1.1//EN"
  "http://www.w3.org/Graphics/SVG/1.1/DTD/svg11.dtd">
<svg xmlns:xlink="http://www.w3.org/1999/xlink" width="468pt" height="288pt" viewBox="0 0 468 288" xmlns="http://www.w3.org/2000/svg" version="1.1">
 <metadata>
  <rdf:RDF xmlns:dc="http://purl.org/dc/elements/1.1/" xmlns:cc="http://creativecommons.org/ns#" xmlns:rdf="http://www.w3.org/1999/02/22-rdf-syntax-ns#">
   <cc:Work>
    <dc:type rdf:resource="http://purl.org/dc/dcmitype/StillImage"/>
    <dc:date>2025-05-09T10:53:06.659987</dc:date>
    <dc:format>image/svg+xml</dc:format>
    <dc:creator>
     <cc:Agent>
      <dc:title>Matplotlib v3.10.0, https://matplotlib.org/</dc:title>
     </cc:Agent>
    </dc:creator>
   </cc:Work>
  </rdf:RDF>
 </metadata>
 <defs>
  <style type="text/css">*{stroke-linejoin: round; stroke-linecap: butt}</style>
 </defs>
 <g id="figure_1">
  <g id="patch_1">
   <path d="M 0 288 
L 468 288 
L 468 0 
L 0 0 
z
" style="fill: #ffffff"/>
  </g>
  <g id="axes_1">
   <g id="patch_2">
    <path d="M 49.61 246.04 
L 457.2 246.04 
L 457.2 10.8 
L 49.61 10.8 
z
" style="fill: #ffffff"/>
   </g>
   <g id="matplotlib.axis_1">
    <g id="xtick_1">
     <g id="line2d_1">
      <defs>
       <path id="mdb688cfc71" d="M 0 0 
L 0 3.5 
" style="stroke: #000000; stroke-width: 0.8"/>
      </defs>
      <g>
       <use xlink:href="#mdb688cfc71" x="100.357372" y="246.04" style="stroke: #000000; stroke-width: 0.8"/>
      </g>
     </g>
     <g id="text_1">
      <!-- -60% -->
      <g transform="translate(87.852684 260.180625) scale(0.1 -0.1)">
       <defs>
        <path id="HelveticaNeueforSAS-2d" d="M 2170 2035 
L 2170 1523 
L 320 1523 
L 320 2035 
L 2170 2035 
z
" transform="scale(0.015625)"/>
        <path id="HelveticaNeueforSAS-36" d="M 3194 3379 
L 2650 3379 
Q 2605 3706 2403 3882 
Q 2202 4058 1888 4058 
Q 1363 4058 1084 3622 
Q 806 3187 787 2336 
L 800 2323 
Q 1178 2918 1933 2918 
Q 2336 2918 2653 2732 
Q 2970 2547 3146 2211 
Q 3322 1875 3322 1453 
Q 3322 806 2925 358 
Q 2522 -77 1805 -77 
Q 1030 -77 636 470 
Q 243 1018 243 2112 
Q 243 3290 668 3914 
Q 1094 4538 1914 4538 
Q 2477 4538 2809 4234 
Q 3142 3930 3194 3379 
z
M 1830 403 
Q 2234 403 2490 688 
Q 2746 973 2746 1408 
Q 2746 1882 2499 2160 
Q 2253 2438 1824 2438 
Q 1402 2438 1146 2153 
Q 890 1869 890 1414 
Q 890 966 1149 684 
Q 1408 403 1830 403 
z
" transform="scale(0.015625)"/>
        <path id="HelveticaNeueforSAS-30" d="M 2912 4038 
Q 3290 3546 3290 2227 
Q 3290 915 2912 422 
Q 2528 -77 1779 -77 
Q 1018 -77 646 429 
Q 269 934 269 2227 
Q 269 3526 646 4032 
Q 1030 4538 1779 4538 
Q 2528 4538 2912 4038 
z
M 1082 781 
Q 1325 403 1779 403 
Q 2285 403 2502 838 
Q 2714 1254 2714 2272 
Q 2714 2733 2666 3097 
Q 2618 3462 2445 3712 
Q 2208 4058 1773 4058 
Q 1338 4058 1088 3686 
Q 845 3315 845 2234 
Q 845 1178 1082 781 
z
" transform="scale(0.015625)"/>
        <path id="HelveticaNeueforSAS-25" d="M 5190 4621 
L 1754 -141 
L 1203 -141 
L 4646 4621 
L 5190 4621 
z
M 2650 3258 
Q 2650 2662 2381 2316 
Q 2112 1971 1626 1971 
Q 1120 1971 854 2297 
Q 589 2624 589 3238 
Q 589 3859 854 4198 
Q 1120 4538 1626 4538 
Q 2650 4538 2650 3258 
z
M 1606 2323 
Q 1882 2323 2026 2556 
Q 2170 2790 2170 3258 
Q 2170 3738 2032 3962 
Q 1894 4186 1619 4186 
Q 1357 4186 1213 3946 
Q 1069 3706 1069 3245 
Q 1069 2323 1606 2323 
z
M 5811 1210 
Q 5811 627 5542 275 
Q 5274 -77 4787 -77 
Q 4288 -77 4019 249 
Q 3750 576 3750 1190 
Q 3750 1811 4019 2150 
Q 4288 2490 4787 2490 
Q 5811 2490 5811 1210 
z
M 4768 275 
Q 5331 275 5331 1210 
Q 5331 1683 5196 1910 
Q 5062 2138 4787 2138 
Q 4518 2138 4374 1901 
Q 4230 1664 4230 1203 
Q 4230 723 4368 499 
Q 4506 275 4768 275 
z
" transform="scale(0.015625)"/>
       </defs>
       <use xlink:href="#HelveticaNeueforSAS-2d"/>
       <use xlink:href="#HelveticaNeueforSAS-36" transform="translate(38.899994 0)"/>
       <use xlink:href="#HelveticaNeueforSAS-30" transform="translate(94.499985 0)"/>
       <use xlink:href="#HelveticaNeueforSAS-25" transform="translate(150.099976 0)"/>
      </g>
     </g>
    </g>
    <g id="xtick_2">
     <g id="line2d_2">
      <g>
       <use xlink:href="#mdb688cfc71" x="197.019032" y="246.04" style="stroke: #000000; stroke-width: 0.8"/>
      </g>
     </g>
     <g id="text_2">
      <!-- 0% -->
      <g transform="translate(189.239344 260.180625) scale(0.1 -0.1)">
       <use xlink:href="#HelveticaNeueforSAS-30"/>
       <use xlink:href="#HelveticaNeueforSAS-25" transform="translate(55.599991 0)"/>
      </g>
     </g>
    </g>
    <g id="xtick_3">
     <g id="line2d_3">
      <g>
       <use xlink:href="#mdb688cfc71" x="293.680692" y="246.04" style="stroke: #000000; stroke-width: 0.8"/>
      </g>
     </g>
     <g id="text_3">
      <!-- 60% -->
      <g transform="translate(283.121317 260.180625) scale(0.1 -0.1)">
       <use xlink:href="#HelveticaNeueforSAS-36"/>
       <use xlink:href="#HelveticaNeueforSAS-30" transform="translate(55.599991 0)"/>
       <use xlink:href="#HelveticaNeueforSAS-25" transform="translate(111.199982 0)"/>
      </g>
     </g>
    </g>
    <g id="xtick_4">
     <g id="line2d_4">
      <g>
       <use xlink:href="#mdb688cfc71" x="350.06666" y="246.04" style="stroke: #000000; stroke-width: 0.8"/>
      </g>
     </g>
     <g id="text_4">
      <!-- 95% -->
      <g transform="translate(339.507285 260.180625) scale(0.1 -0.1)">
       <defs>
        <path id="HelveticaNeueforSAS-39" d="M 3264 2368 
Q 3264 1120 2873 521 
Q 2483 -77 1690 -77 
Q 1094 -77 736 224 
Q 378 525 314 1094 
L 858 1094 
Q 902 768 1126 585 
Q 1350 403 1690 403 
Q 2189 403 2435 832 
Q 2682 1261 2714 2157 
L 2701 2170 
Q 2541 1875 2262 1708 
Q 1984 1542 1645 1542 
Q 979 1542 598 1952 
Q 218 2362 218 3059 
Q 218 3488 406 3824 
Q 595 4160 934 4349 
Q 1274 4538 1709 4538 
Q 2496 4538 2880 4000 
Q 3264 3462 3264 2368 
z
M 1690 2022 
Q 1958 2022 2169 2156 
Q 2381 2291 2499 2518 
Q 2618 2746 2618 3021 
Q 2618 3469 2368 3763 
Q 2118 4058 1677 4058 
Q 1267 4058 1030 3766 
Q 794 3475 794 2982 
Q 794 2733 915 2509 
Q 1037 2285 1241 2153 
Q 1446 2022 1690 2022 
z
" transform="scale(0.015625)"/>
        <path id="HelveticaNeueforSAS-35" d="M 3008 3981 
L 1178 3981 
L 934 2675 
L 947 2662 
Q 1094 2822 1308 2905 
Q 1523 2989 1792 2989 
Q 2227 2989 2560 2800 
Q 2893 2611 3075 2262 
Q 3258 1914 3258 1440 
Q 3258 1005 3059 659 
Q 2861 314 2499 118 
Q 2138 -77 1670 -77 
Q 1274 -77 947 80 
Q 621 237 429 531 
Q 237 826 224 1216 
L 224 1222 
L 768 1222 
Q 794 864 1059 633 
Q 1325 403 1722 403 
Q 2144 403 2413 694 
Q 2682 986 2682 1478 
Q 2682 1779 2547 2012 
Q 2413 2246 2176 2377 
Q 1939 2509 1658 2509 
Q 1178 2509 813 2080 
L 346 2106 
L 768 4461 
L 3008 4461 
L 3008 3981 
z
" transform="scale(0.015625)"/>
       </defs>
       <use xlink:href="#HelveticaNeueforSAS-39"/>
       <use xlink:href="#HelveticaNeueforSAS-35" transform="translate(55.599991 0)"/>
       <use xlink:href="#HelveticaNeueforSAS-25" transform="translate(111.199982 0)"/>
      </g>
     </g>
    </g>
    <g id="xtick_5">
     <g id="line2d_5">
      <g>
       <use xlink:href="#mdb688cfc71" x="406.452628" y="246.04" style="stroke: #000000; stroke-width: 0.8"/>
      </g>
     </g>
     <g id="text_5">
      <!-- 130% -->
      <g transform="translate(393.113566 260.180625) scale(0.1 -0.1)">
       <defs>
        <path id="HelveticaNeueforSAS-31" d="M 2278 0 
L 1734 0 
L 1734 3251 
L 557 3251 
L 557 3686 
L 576 3686 
Q 1152 3686 1465 3894 
Q 1779 4102 1862 4538 
L 2278 4538 
L 2278 0 
z
" transform="scale(0.015625)"/>
        <path id="HelveticaNeueforSAS-33" d="M 3066 3328 
Q 3066 3046 2902 2806 
Q 2739 2566 2438 2419 
L 2438 2406 
Q 2835 2317 3046 2029 
Q 3258 1741 3258 1306 
Q 3258 890 3059 576 
Q 2861 262 2509 92 
Q 2157 -77 1702 -77 
Q 1011 -77 598 307 
Q 186 691 186 1382 
L 186 1402 
L 736 1402 
Q 755 922 1011 662 
Q 1267 403 1702 403 
Q 2125 403 2403 649 
Q 2682 896 2682 1280 
Q 2682 1683 2416 1916 
Q 2150 2150 1696 2150 
Q 1549 2150 1389 2131 
L 1389 2592 
Q 1440 2586 1594 2586 
Q 1997 2586 2246 2794 
Q 2496 3002 2496 3328 
Q 2496 3667 2275 3862 
Q 2054 4058 1690 4058 
Q 1293 4058 1062 3798 
Q 832 3539 826 3072 
L 282 3072 
Q 314 3776 682 4157 
Q 1050 4538 1690 4538 
Q 2336 4538 2701 4214 
Q 3066 3891 3066 3328 
z
" transform="scale(0.015625)"/>
       </defs>
       <use xlink:href="#HelveticaNeueforSAS-31"/>
       <use xlink:href="#HelveticaNeueforSAS-33" transform="translate(55.599991 0)"/>
       <use xlink:href="#HelveticaNeueforSAS-30" transform="translate(111.199982 0)"/>
       <use xlink:href="#HelveticaNeueforSAS-25" transform="translate(166.799973 0)"/>
      </g>
     </g>
    </g>
    <g id="text_6">
     <!-- Progress value (R) -->
     <g transform="translate(212.854219 273.469688) scale(0.1 -0.1)">
      <defs>
       <path id="HelveticaNeueforSAS-50" d="M 3904 3219 
Q 3904 2560 3539 2214 
Q 3174 1869 2573 1869 
L 1107 1869 
L 1107 0 
L 499 0 
L 499 4570 
L 2534 4570 
Q 3168 4570 3536 4224 
Q 3904 3878 3904 3219 
z
M 3296 3219 
Q 3296 4058 2323 4058 
L 1107 4058 
L 1107 2381 
L 2362 2381 
Q 2803 2381 3049 2592 
Q 3296 2803 3296 3219 
z
" transform="scale(0.015625)"/>
       <path id="HelveticaNeueforSAS-72" d="M 2131 3386 
L 2131 2810 
Q 1523 2810 1228 2483 
Q 934 2157 934 1478 
L 934 0 
L 390 0 
L 390 3309 
L 902 3309 
L 902 2611 
L 915 2611 
Q 1107 3008 1385 3197 
Q 1664 3386 2054 3386 
L 2131 3386 
z
" transform="scale(0.015625)"/>
       <path id="HelveticaNeueforSAS-6f" d="M 3443 1651 
Q 3443 1146 3244 752 
Q 3046 358 2681 140 
Q 2317 -77 1837 -77 
Q 1357 -77 995 134 
Q 634 346 432 739 
Q 230 1133 230 1651 
Q 230 2176 425 2566 
Q 621 2957 982 3171 
Q 1344 3386 1837 3386 
Q 2336 3386 2697 3165 
Q 3059 2944 3251 2550 
Q 3443 2157 3443 1651 
z
M 1837 403 
Q 2131 403 2368 560 
Q 2605 717 2736 998 
Q 2867 1280 2867 1651 
Q 2867 2022 2732 2307 
Q 2598 2592 2364 2749 
Q 2131 2906 1830 2906 
Q 1542 2906 1308 2752 
Q 1075 2598 940 2313 
Q 806 2029 806 1651 
Q 806 1280 937 998 
Q 1069 717 1302 560 
Q 1536 403 1837 403 
z
" transform="scale(0.015625)"/>
       <path id="HelveticaNeueforSAS-67" d="M 2746 2835 
L 2752 2835 
L 2752 3309 
L 3264 3309 
L 3264 250 
Q 3264 -1344 1734 -1344 
Q 1152 -1344 768 -1091 
Q 384 -838 358 -371 
L 902 -371 
Q 915 -621 1168 -765 
Q 1421 -909 1760 -909 
Q 2240 -909 2496 -589 
Q 2752 -269 2752 358 
L 2752 563 
L 2739 563 
Q 2611 288 2332 125 
Q 2054 -38 1709 -38 
Q 1267 -38 931 173 
Q 595 384 412 765 
Q 230 1146 230 1638 
Q 230 2144 409 2541 
Q 589 2938 934 3162 
Q 1280 3386 1754 3386 
Q 2093 3386 2349 3238 
Q 2605 3091 2746 2835 
z
M 1741 442 
Q 2189 442 2457 794 
Q 2726 1146 2726 1722 
Q 2726 2259 2476 2582 
Q 2227 2906 1779 2906 
Q 1325 2906 1065 2579 
Q 806 2253 806 1702 
Q 806 1114 1052 778 
Q 1299 442 1741 442 
z
" transform="scale(0.015625)"/>
       <path id="HelveticaNeueforSAS-65" d="M 2893 2874 
Q 3283 2368 3283 1555 
L 3283 1491 
L 806 1491 
L 806 1453 
Q 806 973 1084 688 
Q 1363 403 1837 403 
Q 2195 403 2409 569 
Q 2624 736 2694 1050 
L 3232 1050 
Q 3123 506 2755 214 
Q 2387 -77 1818 -77 
Q 1299 -77 941 154 
Q 595 384 412 800 
Q 230 1216 230 1677 
Q 230 2413 666 2893 
Q 1107 3386 1786 3386 
Q 2496 3386 2893 2874 
z
M 1747 2906 
Q 1363 2906 1100 2650 
Q 838 2394 806 1971 
L 2707 1971 
Q 2682 2374 2413 2640 
Q 2144 2906 1747 2906 
z
" transform="scale(0.015625)"/>
       <path id="HelveticaNeueforSAS-73" d="M 2861 2349 
L 2317 2349 
L 2317 2355 
Q 2291 2618 2086 2762 
Q 1882 2906 1549 2906 
Q 1222 2906 1033 2794 
Q 845 2682 845 2483 
Q 845 2304 1008 2189 
Q 1171 2074 1517 1997 
L 2029 1882 
Q 2522 1773 2765 1552 
Q 3008 1331 3008 966 
Q 3008 480 2630 201 
Q 2253 -77 1600 -77 
Q 960 -77 592 208 
Q 224 493 198 1043 
L 742 1043 
Q 749 736 982 569 
Q 1216 403 1632 403 
Q 2029 403 2230 528 
Q 2432 653 2432 896 
Q 2432 1120 2227 1248 
Q 2035 1370 1402 1504 
Q 774 1638 521 1852 
Q 269 2067 269 2445 
Q 269 2874 614 3130 
Q 960 3386 1510 3386 
Q 2170 3386 2499 3130 
Q 2829 2874 2861 2349 
z
" transform="scale(0.015625)"/>
       <path id="HelveticaNeueforSAS-20" transform="scale(0.015625)"/>
       <path id="HelveticaNeueforSAS-76" d="M 698 3309 
L 1626 550 
L 1638 550 
L 2541 3309 
L 3110 3309 
L 1901 0 
L 1318 0 
L 90 3309 
L 698 3309 
z
" transform="scale(0.015625)"/>
       <path id="HelveticaNeueforSAS-61" d="M 3002 2496 
L 3002 589 
Q 3002 403 3174 403 
Q 3258 403 3341 435 
L 3341 13 
Q 3181 -77 2950 -77 
Q 2726 -77 2608 51 
Q 2490 179 2490 435 
Q 2054 -77 1325 -77 
Q 813 -77 521 166 
Q 230 410 230 851 
Q 230 1299 518 1555 
Q 787 1818 1856 1952 
Q 2208 1997 2336 2086 
Q 2464 2176 2464 2362 
Q 2464 2637 2285 2771 
Q 2106 2906 1728 2906 
Q 1325 2906 1123 2752 
Q 922 2598 902 2278 
L 358 2278 
Q 384 2829 745 3107 
Q 1107 3386 1766 3386 
Q 2432 3386 2717 3152 
Q 3002 2918 3002 2496 
z
M 1446 403 
Q 1747 403 1977 508 
Q 2208 614 2333 784 
Q 2458 954 2458 1139 
L 2458 1709 
Q 2310 1606 2074 1574 
L 1517 1491 
Q 1152 1440 979 1293 
Q 806 1146 806 890 
Q 806 659 976 531 
Q 1146 403 1446 403 
z
" transform="scale(0.015625)"/>
       <path id="HelveticaNeueforSAS-6c" d="M 986 4570 
L 986 0 
L 442 0 
L 442 4570 
L 986 4570 
z
" transform="scale(0.015625)"/>
       <path id="HelveticaNeueforSAS-75" d="M 954 1056 
Q 954 762 1136 582 
Q 1318 403 1626 403 
Q 2093 403 2349 681 
Q 2605 960 2605 1421 
L 2605 3309 
L 3149 3309 
L 3149 0 
L 2637 0 
L 2637 525 
L 2624 525 
Q 2285 -77 1549 -77 
Q 410 -77 410 1101 
L 410 3309 
L 954 3309 
L 954 1056 
z
" transform="scale(0.015625)"/>
       <path id="HelveticaNeueforSAS-28" d="M 877 1728 
Q 877 870 1078 153 
Q 1280 -563 1722 -1267 
L 1306 -1267 
Q 762 -416 531 281 
Q 301 979 301 1728 
Q 301 2483 563 3257 
Q 826 4032 1306 4678 
L 1722 4678 
Q 1286 3994 1081 3280 
Q 877 2566 877 1728 
z
" transform="scale(0.015625)"/>
       <path id="HelveticaNeueforSAS-52" d="M 4038 3373 
Q 4038 2918 3840 2624 
Q 3642 2330 3245 2214 
L 3245 2202 
Q 3482 2157 3626 2032 
Q 3770 1907 3850 1664 
Q 3930 1421 3942 1005 
Q 3955 608 4016 384 
Q 4077 160 4198 0 
L 3520 0 
Q 3469 70 3453 131 
Q 3437 192 3411 352 
L 3386 851 
Q 3373 1210 3232 1574 
Q 3085 1946 2611 1952 
L 1107 1952 
L 1107 0 
L 499 0 
L 499 4570 
L 2675 4570 
Q 3283 4570 3660 4250 
Q 4038 3930 4038 3373 
z
M 3430 3277 
Q 3430 3648 3222 3853 
Q 3014 4058 2643 4058 
L 1107 4058 
L 1107 2464 
L 2406 2464 
Q 3430 2464 3430 3277 
z
" transform="scale(0.015625)"/>
       <path id="HelveticaNeueforSAS-29" d="M 1357 1683 
Q 1357 915 1094 153 
Q 832 -608 352 -1267 
L -64 -1267 
Q 371 -582 576 131 
Q 781 845 781 1683 
Q 781 2528 576 3257 
Q 371 3987 -64 4678 
L 352 4678 
Q 870 3885 1113 3168 
Q 1357 2451 1357 1683 
z
" transform="scale(0.015625)"/>
      </defs>
      <use xlink:href="#HelveticaNeueforSAS-50"/>
      <use xlink:href="#HelveticaNeueforSAS-72" transform="translate(64.799988 0)"/>
      <use xlink:href="#HelveticaNeueforSAS-6f" transform="translate(98.099976 0)"/>
      <use xlink:href="#HelveticaNeueforSAS-67" transform="translate(155.499969 0)"/>
      <use xlink:href="#HelveticaNeueforSAS-72" transform="translate(212.899963 0)"/>
      <use xlink:href="#HelveticaNeueforSAS-65" transform="translate(246.199951 0)"/>
      <use xlink:href="#HelveticaNeueforSAS-73" transform="translate(299.899948 0)"/>
      <use xlink:href="#HelveticaNeueforSAS-73" transform="translate(349.899933 0)"/>
      <use xlink:href="#HelveticaNeueforSAS-20" transform="translate(399.899918 0)"/>
      <use xlink:href="#HelveticaNeueforSAS-76" transform="translate(427.699905 0)"/>
      <use xlink:href="#HelveticaNeueforSAS-61" transform="translate(477.69989 0)"/>
      <use xlink:href="#HelveticaNeueforSAS-6c" transform="translate(531.399887 0)"/>
      <use xlink:href="#HelveticaNeueforSAS-75" transform="translate(553.599884 0)"/>
      <use xlink:href="#HelveticaNeueforSAS-65" transform="translate(609.199875 0)"/>
      <use xlink:href="#HelveticaNeueforSAS-20" transform="translate(662.899872 0)"/>
      <use xlink:href="#HelveticaNeueforSAS-28" transform="translate(690.69986 0)"/>
      <use xlink:href="#HelveticaNeueforSAS-52" transform="translate(716.599854 0)"/>
      <use xlink:href="#HelveticaNeueforSAS-29" transform="translate(785.099838 0)"/>
     </g>
    </g>
   </g>
   <g id="matplotlib.axis_2">
    <g id="ytick_1">
     <g id="line2d_6">
      <path d="M 49.61 235.347273 
L 457.2 235.347273 
" clip-path="url(#pc5479e9c1d)" style="fill: none; stroke-dasharray: 0.8,1.32; stroke-dashoffset: 0; stroke: #b0b0b0; stroke-width: 0.8"/>
     </g>
     <g id="line2d_7">
      <defs>
       <path id="m7c83561df9" d="M 0 0 
L -3.5 0 
" style="stroke: #000000; stroke-width: 0.8"/>
      </defs>
      <g>
       <use xlink:href="#m7c83561df9" x="49.61" y="235.347273" style="stroke: #000000; stroke-width: 0.8"/>
      </g>
     </g>
     <g id="text_7">
      <!-- -5 -->
      <g transform="translate(33.16 238.917585) scale(0.1 -0.1)">
       <use xlink:href="#HelveticaNeueforSAS-2d"/>
       <use xlink:href="#HelveticaNeueforSAS-35" transform="translate(38.899994 0)"/>
      </g>
     </g>
    </g>
    <g id="ytick_2">
     <g id="line2d_8">
      <path d="M 49.61 181.883636 
L 457.2 181.883636 
" clip-path="url(#pc5479e9c1d)" style="fill: none; stroke-dasharray: 0.8,1.32; stroke-dashoffset: 0; stroke: #b0b0b0; stroke-width: 0.8"/>
     </g>
     <g id="line2d_9">
      <g>
       <use xlink:href="#m7c83561df9" x="49.61" y="181.883636" style="stroke: #000000; stroke-width: 0.8"/>
      </g>
     </g>
     <g id="text_8">
      <!-- -2.5 -->
      <g transform="translate(24.820938 185.453949) scale(0.1 -0.1)">
       <defs>
        <path id="HelveticaNeueforSAS-32" d="M 3162 3232 
Q 3162 2765 2899 2387 
Q 2643 2010 1786 1517 
Q 1280 1222 1059 988 
Q 838 755 787 480 
L 3117 480 
L 3117 0 
L 154 0 
Q 198 557 442 992 
Q 685 1408 1363 1818 
Q 2138 2278 2368 2573 
Q 2586 2848 2586 3232 
Q 2586 3590 2333 3824 
Q 2080 4058 1709 4058 
Q 1299 4058 1062 3754 
Q 826 3450 826 2976 
L 826 2931 
L 282 2931 
L 275 3046 
Q 275 3488 457 3827 
Q 640 4166 969 4352 
Q 1299 4538 1741 4538 
Q 2157 4538 2480 4378 
Q 2803 4218 2982 3923 
Q 3162 3629 3162 3232 
z
" transform="scale(0.015625)"/>
        <path id="HelveticaNeueforSAS-2e" d="M 1242 710 
L 1242 0 
L 531 0 
L 531 710 
L 1242 710 
z
" transform="scale(0.015625)"/>
       </defs>
       <use xlink:href="#HelveticaNeueforSAS-2d"/>
       <use xlink:href="#HelveticaNeueforSAS-32" transform="translate(38.899994 0)"/>
       <use xlink:href="#HelveticaNeueforSAS-2e" transform="translate(94.499985 0)"/>
       <use xlink:href="#HelveticaNeueforSAS-35" transform="translate(122.299973 0)"/>
      </g>
     </g>
    </g>
    <g id="ytick_3">
     <g id="line2d_10">
      <path d="M 49.61 128.42 
L 457.2 128.42 
" clip-path="url(#pc5479e9c1d)" style="fill: none; stroke-dasharray: 0.8,1.32; stroke-dashoffset: 0; stroke: #b0b0b0; stroke-width: 0.8"/>
     </g>
     <g id="line2d_11">
      <g>
       <use xlink:href="#m7c83561df9" x="49.61" y="128.42" style="stroke: #000000; stroke-width: 0.8"/>
      </g>
     </g>
     <g id="text_9">
      <!-- 0 -->
      <g transform="translate(37.050625 131.990313) scale(0.1 -0.1)">
       <use xlink:href="#HelveticaNeueforSAS-30"/>
      </g>
     </g>
    </g>
    <g id="ytick_4">
     <g id="line2d_12">
      <path d="M 49.61 74.956364 
L 457.2 74.956364 
" clip-path="url(#pc5479e9c1d)" style="fill: none; stroke-dasharray: 0.8,1.32; stroke-dashoffset: 0; stroke: #b0b0b0; stroke-width: 0.8"/>
     </g>
     <g id="line2d_13">
      <g>
       <use xlink:href="#m7c83561df9" x="49.61" y="74.956364" style="stroke: #000000; stroke-width: 0.8"/>
      </g>
     </g>
     <g id="text_10">
      <!-- 2.5 -->
      <g transform="translate(28.711563 78.526676) scale(0.1 -0.1)">
       <use xlink:href="#HelveticaNeueforSAS-32"/>
       <use xlink:href="#HelveticaNeueforSAS-2e" transform="translate(55.599991 0)"/>
       <use xlink:href="#HelveticaNeueforSAS-35" transform="translate(83.399979 0)"/>
      </g>
     </g>
    </g>
    <g id="ytick_5">
     <g id="line2d_14">
      <path d="M 49.61 21.492727 
L 457.2 21.492727 
" clip-path="url(#pc5479e9c1d)" style="fill: none; stroke-dasharray: 0.8,1.32; stroke-dashoffset: 0; stroke: #b0b0b0; stroke-width: 0.8"/>
     </g>
     <g id="line2d_15">
      <g>
       <use xlink:href="#m7c83561df9" x="49.61" y="21.492727" style="stroke: #000000; stroke-width: 0.8"/>
      </g>
     </g>
     <g id="text_11">
      <!-- 5 -->
      <g transform="translate(37.050625 25.06304) scale(0.1 -0.1)">
       <use xlink:href="#HelveticaNeueforSAS-35"/>
      </g>
     </g>
    </g>
    <g id="text_12">
     <!-- Score -->
     <g transform="translate(18.84125 141.565313) rotate(-90) scale(0.1 -0.1)">
      <defs>
       <path id="HelveticaNeueforSAS-53" d="M 3718 3232 
L 3142 3232 
Q 3040 4166 2010 4166 
Q 1517 4166 1251 3961 
Q 986 3757 986 3386 
Q 986 3136 1216 2944 
Q 1440 2778 2451 2573 
Q 3200 2419 3555 2105 
Q 3910 1792 3910 1254 
Q 3910 614 3386 256 
Q 2867 -109 2125 -109 
Q 1574 -109 1148 76 
Q 723 262 480 627 
Q 237 992 237 1504 
L 813 1504 
Q 819 986 1184 694 
Q 1549 403 2144 403 
Q 2701 403 3001 617 
Q 3302 832 3302 1235 
Q 3302 1459 3184 1612 
Q 3066 1766 2787 1884 
Q 2509 2003 2016 2093 
Q 1037 2285 710 2566 
Q 378 2861 378 3341 
Q 378 3750 592 4054 
Q 806 4358 1184 4518 
Q 1562 4678 2035 4678 
Q 2803 4678 3257 4297 
Q 3712 3917 3718 3232 
z
" transform="scale(0.015625)"/>
       <path id="HelveticaNeueforSAS-63" d="M 3219 2246 
L 2656 2246 
Q 2592 2566 2377 2736 
Q 2163 2906 1837 2906 
Q 1338 2906 1072 2570 
Q 806 2234 806 1613 
Q 806 1062 1065 732 
Q 1325 403 1773 403 
Q 2163 403 2396 614 
Q 2630 826 2682 1210 
L 3238 1210 
Q 3149 589 2771 256 
Q 2394 -77 1779 -77 
Q 1056 -77 643 377 
Q 230 832 230 1613 
Q 230 2150 419 2550 
Q 608 2950 960 3168 
Q 1312 3386 1792 3386 
Q 2400 3386 2777 3094 
Q 3155 2803 3219 2246 
z
" transform="scale(0.015625)"/>
      </defs>
      <use xlink:href="#HelveticaNeueforSAS-53"/>
      <use xlink:href="#HelveticaNeueforSAS-63" transform="translate(64.799988 0)"/>
      <use xlink:href="#HelveticaNeueforSAS-6f" transform="translate(118.499985 0)"/>
      <use xlink:href="#HelveticaNeueforSAS-72" transform="translate(175.899979 0)"/>
      <use xlink:href="#HelveticaNeueforSAS-65" transform="translate(209.199966 0)"/>
     </g>
    </g>
   </g>
   <g id="line2d_16">
    <path d="M 68.136818 235.347273 
L 69.438659 235.347273 
L 70.740499 235.347273 
L 72.04234 235.347273 
L 73.34418 235.347273 
L 74.646021 235.347273 
L 75.947861 235.347273 
L 77.249702 235.347273 
L 78.551543 235.347273 
L 79.853383 235.347273 
L 81.155224 235.347273 
L 82.457064 235.347273 
L 83.758905 235.347273 
L 85.060745 235.347273 
L 86.362586 235.347273 
L 87.664426 235.347273 
L 88.966267 235.347273 
L 90.268107 235.347273 
L 91.569948 235.347273 
L 92.871788 235.347273 
L 94.173629 235.347273 
L 95.47547 235.347273 
L 96.77731 235.347273 
L 98.079151 235.347273 
L 99.380991 235.347273 
L 100.682832 235.167687 
L 101.984672 234.447632 
L 103.286513 233.727577 
L 104.588353 233.007523 
L 105.890194 232.287468 
L 107.192034 231.567413 
L 108.493875 230.847358 
L 109.795715 230.127304 
L 111.097556 229.407249 
L 112.399397 228.687194 
L 113.701237 227.967139 
L 115.003078 227.247085 
L 116.304918 226.52703 
L 117.606759 225.806975 
L 118.908599 225.08692 
L 120.21044 224.366866 
L 121.51228 223.646811 
L 122.814121 222.926756 
L 124.115961 222.206702 
L 125.417802 221.486647 
L 126.719642 220.766592 
L 128.021483 220.046537 
L 129.323324 219.326483 
L 130.625164 218.606428 
L 131.927005 217.886373 
L 133.228845 217.166318 
L 134.530686 216.446264 
L 135.832526 215.726209 
L 137.134367 215.006154 
L 138.436207 214.286099 
L 139.738048 213.566045 
L 141.039888 212.84599 
L 142.341729 212.125935 
L 143.643569 211.40588 
L 144.94541 210.685826 
L 146.247251 209.965771 
L 147.549091 209.245716 
L 148.850932 208.525662 
L 150.152772 207.805607 
L 151.454613 207.085552 
L 152.756453 206.365497 
L 154.058294 205.645443 
L 155.360134 204.925388 
L 156.661975 204.205333 
L 157.963815 203.485278 
L 159.265656 202.765224 
L 160.567497 202.045169 
L 161.869337 201.325114 
L 163.171178 200.605059 
L 164.473018 199.885005 
L 165.774859 199.16495 
L 167.076699 198.444895 
L 168.37854 197.724841 
L 169.68038 197.004786 
L 170.982221 196.284731 
L 172.284061 195.564676 
L 173.585902 194.844622 
L 174.887742 194.124567 
L 176.189583 193.404512 
L 177.491424 192.684457 
L 178.793264 191.964403 
L 180.095105 191.244348 
L 181.396945 190.524293 
L 182.698786 189.804238 
L 184.000626 189.084184 
L 185.302467 188.364129 
L 186.604307 187.644074 
L 187.906148 186.92402 
L 189.207988 186.203965 
L 190.509829 185.48391 
L 191.811669 184.763855 
L 193.11351 184.043801 
L 194.415351 183.323746 
L 195.717191 182.603691 
L 197.019032 181.883636 
" clip-path="url(#pc5479e9c1d)" style="fill: none; stroke: #d42c2c; stroke-width: 1.5; stroke-linecap: round"/>
   </g>
   <g id="line2d_17">
    <path d="M 197.019032 181.883636 
L 197.995412 181.343595 
L 198.971792 180.803554 
L 199.948173 180.263513 
L 200.924553 179.723472 
L 201.900934 179.183431 
L 202.877314 178.64339 
L 203.853694 178.103349 
L 204.830075 177.563308 
L 205.806455 177.023267 
L 206.782836 176.483226 
L 207.759216 175.943185 
L 208.735596 175.403144 
L 209.711977 174.863103 
L 210.688357 174.323062 
L 211.664738 173.783021 
L 212.641118 173.24298 
L 213.617499 172.702938 
L 214.593879 172.162897 
L 215.570259 171.622856 
L 216.54664 171.082815 
L 217.52302 170.542774 
L 218.499401 170.002733 
L 219.475781 169.462692 
L 220.452161 168.922651 
L 221.428542 168.38261 
L 222.404922 167.842569 
L 223.381303 167.302528 
L 224.357683 166.762487 
L 225.334063 166.222446 
L 226.310444 165.682405 
L 227.286824 165.142364 
L 228.263205 164.602323 
L 229.239585 164.062282 
L 230.215965 163.522241 
L 231.192346 162.9822 
L 232.168726 162.442159 
L 233.145107 161.902117 
L 234.121487 161.362076 
L 235.097867 160.822035 
L 236.074248 160.281994 
L 237.050628 159.741953 
L 238.027009 159.201912 
L 239.003389 158.661871 
L 239.979769 158.12183 
L 240.95615 157.581789 
L 241.93253 157.041748 
L 242.908911 156.501707 
L 243.885291 155.961666 
L 244.861671 155.421625 
L 245.838052 154.881584 
L 246.814432 154.341543 
L 247.790813 153.801502 
L 248.767193 153.261461 
L 249.743573 152.72142 
L 250.719954 152.181379 
L 251.696334 151.641337 
L 252.672715 151.101296 
L 253.649095 150.561255 
L 254.625476 150.021214 
L 255.601856 149.481173 
L 256.578236 148.941132 
L 257.554617 148.401091 
L 258.530997 147.86105 
L 259.507378 147.321009 
L 260.483758 146.780968 
L 261.460138 146.240927 
L 262.436519 145.700886 
L 263.412899 145.160845 
L 264.38928 144.620804 
L 265.36566 144.080763 
L 266.34204 143.540722 
L 267.318421 143.000681 
L 268.294801 142.46064 
L 269.271182 141.920599 
L 270.247562 141.380558 
L 271.223942 140.840516 
L 272.200323 140.300475 
L 273.176703 139.760434 
L 274.153084 139.220393 
L 275.129464 138.680352 
L 276.105844 138.140311 
L 277.082225 137.60027 
L 278.058605 137.060229 
L 279.034986 136.520188 
L 280.011366 135.980147 
L 280.987746 135.440106 
L 281.964127 134.900065 
L 282.940507 134.360024 
L 283.916888 133.819983 
L 284.893268 133.279942 
L 285.869648 132.739901 
L 286.846029 132.19986 
L 287.822409 131.659819 
L 288.79879 131.119778 
L 289.77517 130.579736 
L 290.75155 130.039695 
L 291.727931 129.499654 
L 292.704311 128.959613 
L 293.680692 128.419145 
" clip-path="url(#pc5479e9c1d)" style="fill: none; stroke: #f47c04; stroke-width: 1.5; stroke-linecap: round"/>
   </g>
   <g id="line2d_18">
    <path d="M 293.680692 128.419145 
L 294.250247 127.879105 
L 294.819802 127.339065 
L 295.389357 126.799025 
L 295.958913 126.258985 
L 296.528468 125.718945 
L 297.098023 125.178905 
L 297.667578 124.638865 
L 298.237134 124.098825 
L 298.806689 123.558785 
L 299.376244 123.018745 
L 299.945799 122.478705 
L 300.515355 121.938665 
L 301.08491 121.398625 
L 301.654465 120.858585 
L 302.22402 120.318545 
L 302.793575 119.778505 
L 303.363131 119.238465 
L 303.932686 118.698425 
L 304.502241 118.158385 
L 305.071796 117.618345 
L 305.641352 117.078305 
L 306.210907 116.538265 
L 306.780462 115.998225 
L 307.350017 115.458185 
L 307.919573 114.918145 
L 308.489128 114.378105 
L 309.058683 113.838065 
L 309.628238 113.298025 
L 310.197794 112.757985 
L 310.767349 112.217945 
L 311.336904 111.677905 
L 311.906459 111.137866 
L 312.476014 110.597826 
L 313.04557 110.057786 
L 313.615125 109.517746 
L 314.18468 108.977706 
L 314.754235 108.437666 
L 315.323791 107.897626 
L 315.893346 107.357586 
L 316.462901 106.817546 
L 317.032456 106.277506 
L 317.602012 105.737466 
L 318.171567 105.197426 
L 318.741122 104.657386 
L 319.310677 104.117346 
L 319.880233 103.577306 
L 320.449788 103.037266 
L 321.019343 102.497226 
L 321.588898 101.957186 
L 322.158454 101.417146 
L 322.728009 100.877106 
L 323.297564 100.337066 
L 323.867119 99.797026 
L 324.436674 99.256986 
L 325.00623 98.716946 
L 325.575785 98.176906 
L 326.14534 97.636866 
L 326.714895 97.096826 
L 327.284451 96.556786 
L 327.854006 96.016746 
L 328.423561 95.476706 
L 328.993116 94.936666 
L 329.562672 94.396626 
L 330.132227 93.856586 
L 330.701782 93.316546 
L 331.271337 92.776506 
L 331.840893 92.236467 
L 332.410448 91.696427 
L 332.980003 91.156387 
L 333.549558 90.616347 
L 334.119113 90.076307 
L 334.688669 89.536267 
L 335.258224 88.996227 
L 335.827779 88.456187 
L 336.397334 87.916147 
L 336.96689 87.376107 
L 337.536445 86.836067 
L 338.106 86.296027 
L 338.675555 85.755987 
L 339.245111 85.215947 
L 339.814666 84.675907 
L 340.384221 84.135867 
L 340.953776 83.595827 
L 341.523332 83.055787 
L 342.092887 82.515747 
L 342.662442 81.975707 
L 343.231997 81.435667 
L 343.801552 80.895627 
L 344.371108 80.355587 
L 344.940663 79.815547 
L 345.510218 79.275507 
L 346.079773 78.735467 
L 346.649329 78.195427 
L 347.218884 77.655387 
L 347.788439 77.115347 
L 348.357994 76.575307 
L 348.92755 76.035267 
L 349.497105 75.495227 
L 350.06666 74.955187 
" clip-path="url(#pc5479e9c1d)" style="fill: none; stroke: #fcbc4c; stroke-width: 1.5; stroke-linecap: round"/>
   </g>
   <g id="line2d_19">
    <path d="M 350.06666 74.955187 
L 350.961675 74.106553 
L 351.856691 73.257919 
L 352.751706 72.409285 
L 353.646722 71.56065 
L 354.541737 70.712016 
L 355.436752 69.863382 
L 356.331768 69.014748 
L 357.226783 68.166114 
L 358.121798 67.317479 
L 359.016814 66.468845 
L 359.911829 65.620211 
L 360.806845 64.771577 
L 361.70186 63.922942 
L 362.596875 63.074308 
L 363.491891 62.225674 
L 364.386906 61.37704 
L 365.281921 60.528405 
L 366.176937 59.679771 
L 367.071952 58.831137 
L 367.966968 57.982503 
L 368.861983 57.133868 
L 369.756998 56.285234 
L 370.652014 55.4366 
L 371.547029 54.587966 
L 372.442044 53.739331 
L 373.33706 52.890697 
L 374.232075 52.042063 
L 375.12709 51.193429 
L 376.022106 50.344794 
L 376.917121 49.49616 
L 377.812137 48.647526 
L 378.707152 47.798892 
L 379.602167 46.950258 
L 380.497183 46.101623 
L 381.392198 45.252989 
L 382.287213 44.404355 
L 383.182229 43.555721 
L 384.077244 42.707086 
L 384.97226 41.858452 
L 385.867275 41.009818 
L 386.76229 40.161184 
L 387.657306 39.312549 
L 388.552321 38.463915 
L 389.447336 37.615281 
L 390.342352 36.766647 
L 391.237367 35.918012 
L 392.132383 35.069378 
L 393.027398 34.220744 
L 393.922413 33.37211 
L 394.817429 32.523475 
L 395.712444 31.674841 
L 396.607459 30.826207 
L 397.502475 29.977573 
L 398.39749 29.128938 
L 399.292505 28.280304 
L 400.187521 27.43167 
L 401.082536 26.583036 
L 401.977552 25.734401 
L 402.872567 24.885767 
L 403.767582 24.037133 
L 404.662598 23.188499 
L 405.557613 22.339865 
L 406.452628 21.492727 
L 407.347644 21.492727 
L 408.242659 21.492727 
L 409.137675 21.492727 
L 410.03269 21.492727 
L 410.927705 21.492727 
L 411.822721 21.492727 
L 412.717736 21.492727 
L 413.612751 21.492727 
L 414.507767 21.492727 
L 415.402782 21.492727 
L 416.297798 21.492727 
L 417.192813 21.492727 
L 418.087828 21.492727 
L 418.982844 21.492727 
L 419.877859 21.492727 
L 420.772874 21.492727 
L 421.66789 21.492727 
L 422.562905 21.492727 
L 423.457921 21.492727 
L 424.352936 21.492727 
L 425.247951 21.492727 
L 426.142967 21.492727 
L 427.037982 21.492727 
L 427.932997 21.492727 
L 428.828013 21.492727 
L 429.723028 21.492727 
L 430.618043 21.492727 
L 431.513059 21.492727 
L 432.408074 21.492727 
L 433.30309 21.492727 
L 434.198105 21.492727 
L 435.09312 21.492727 
L 435.988136 21.492727 
L 436.883151 21.492727 
L 437.778166 21.492727 
L 438.673182 21.492727 
" clip-path="url(#pc5479e9c1d)" style="fill: none; stroke: #93c46c; stroke-width: 1.5; stroke-linecap: round"/>
   </g>
   <g id="patch_3">
    <path d="M 49.61 246.04 
L 457.2 246.04 
" style="fill: none; stroke: #000000; stroke-width: 0.8; stroke-linejoin: miter; stroke-linecap: square"/>
   </g>
   <g id="patch_4">
    <path d="M 406.452628 21.242727 
Q 424.090451 21.242727 441.728274 21.242727 
L 441.728274 18.492727 
Q 444.228297 19.992727 446.72832 21.492727 
Q 444.228297 22.992727 441.728274 24.492727 
L 441.728274 21.742727 
Q 424.090451 21.742727 406.452628 21.742727 
L 406.452628 21.242727 
z
" style="fill: #93c46c; stroke: #93c46c; stroke-linecap: round"/>
   </g>
   <g id="patch_5">
    <path d="M 100.357372 235.597273 
Q 82.719549 235.597273 65.081726 235.597273 
L 65.081726 238.347273 
Q 62.581703 236.847273 60.08168 235.347273 
Q 62.581703 233.847273 65.081726 232.347273 
L 65.081726 235.097273 
Q 82.719549 235.097273 100.357372 235.097273 
L 100.357372 235.597273 
z
" style="fill: #d42c2c; stroke: #d42c2c; stroke-linecap: round"/>
   </g>
  </g>
 </g>
 <defs>
  <clipPath id="pc5479e9c1d">
   <rect x="49.61" y="10.8" width="407.59" height="235.24"/>
  </clipPath>
 </defs>
</svg>
